<svg version="1.0" width="250" height="150" xmlns="http://www.w3.org/2000/svg"><defs><filter id="a" x="-.042" y="-.055" width="1.085" height="1.111" color-interpolation-filters="sRGB"><feGaussianBlur stdDeviation="1.5"/></filter><filter id="c" x="-.042" y="-.055" width="1.085" height="1.111" color-interpolation-filters="sRGB"><feGaussianBlur stdDeviation="1.5"/></filter><filter id="b" x="-.042" y="-.055" width="1.085" height="1.111" color-interpolation-filters="sRGB"><feGaussianBlur stdDeviation="1.5"/></filter><filter id="d" x="-.042" y="-.055" width="1.085" height="1.111" color-interpolation-filters="sRGB"><feGaussianBlur stdDeviation="1.5"/></filter></defs><g transform="translate(111.066 -45.354) scale(1.1742)"><rect x="-15" y="55" width="85" height="65" ry="5" filter="url(#a)" opacity=".55" style="filter:url(#b)"/><rect x="-15" y="55" width="85" height="65" ry="5" fill="#4d4d4d"/><path d="M-10 55c-2.77 0-5 2.23-5 5v10h85V60c0-2.77-2.23-5-5-5z" fill="#4d4d4d"/><rect x="-15" y="69" width="85" height="1" ry="0" fill="#666"/></g><g transform="translate(75.84 -10.128) scale(1.1742)"><rect x="-15" y="55" width="85" height="65" ry="5" filter="url(#c)" opacity=".55" style="filter:url(#d)"/><rect x="-15" y="55" width="85" height="65" ry="5" fill="#fafafa"/><path d="M-10 55c-2.77 0-5 2.23-5 5v10h85V60c0-2.77-2.23-5-5-5z" fill="#dedede"/><rect x="-15" y="69" width="85" height="1" ry="0" fill="#b3b3b3"/></g></svg>