<svg width="160" height="94" viewBox="0 0 42.333 24.871" xmlns="http://www.w3.org/2000/svg"><path style="opacity:.8;fill:#fff;fill-opacity:1;stroke-width:9.92168" d="M80 7v11h.998c2.199 0 4 1.801 4 4v51.998c0 2.199-1.801 4-4 4H80V92h78V7H80zM11 20c-1.125 0-2 .875-2 2v51.998c0 1.125.875 2 2 2h69.998c1.125 0 2-.875 2-2V22c0-1.125-.875-2-2-2H11zm3.414 4 2.986 2.986L20.387 24l1.414 1.414-2.987 2.986 2.987 2.987-1.414 1.414-2.987-2.987-2.986 2.987L13 31.387l2.986-2.987L13 25.414 14.414 24zM58 26l.861.896 18.541 19.317h-8.027l3.086 6.621c.372.761.333 1.539.016 2.14-.318.603-.868 1.035-1.475 1.303-.607.27-1.28.382-1.912.278-.632-.105-1.246-.47-1.533-1.117l-3.149-6.432L58 55.27V26z" transform="matrix(.26459 0 0 .26459 0 0)"/><path style="fill:#fff;fill-opacity:1;stroke-width:3.70837;opacity:.4" d="M.529 1.852v22.49h20.638v-3.705H2.91a1.062 1.062 0 0 1-1.058-1.058V5.82c0-.582.476-1.058 1.058-1.058h18.257v-2.91z"/></svg>