<svg width="160" height="94" viewBox="0 0 42.333 24.871" xmlns="http://www.w3.org/2000/svg"><path style="opacity:.8;fill:#fff;stroke-width:13.8049" d="M2 7v7.998A15.043 15.043 0 0 0 13.383 7H2zm14.678 0C14.198 12.94 8.634 17.271 2 18.006v7.338C12.725 24.51 21.56 17.024 24.398 7h-7.72zm10.818 0a28.283 28.283 0 0 1-5.76 11.248l20.354 1.568A46.163 46.163 0 0 0 45.977 7h-18.48zm21.506 0a49.103 49.103 0 0 1-3.74 13.06l3.056.235a.497.497 0 0 1 .313.846l-7.672 7.681 4.73 4.864.344.355-.709.693-.347-.357-5.073-5.211a.497.497 0 0 1 .006-.701l7.256-7.264-28.13-2.164 2.165 28.16 7.256-7.261a.497.497 0 0 1 .7 0L41.583 52.38l.352.351-.702.704-.351-.352-12.078-12.092-7.668 7.676a.497.497 0 0 1-.844-.314l-.234-3.06A49.185 49.185 0 0 1 2 49.509v27.289c20.276-.518 38.575-8.903 52-22.201v-.346h.352l.087-.086h.057v.086h.5v1.986H54v.485h.496v.427H54v.084h.996v1.987H54v-.5C40.249 71.39 22.046 79.3 2 79.795V92h156V7H79.45c-1.327 15.37-7.034 29.483-15.84 41.121l.251.262-.715.693-1.373-1.44.715-.685.09.092.053-.05-.592-.614-.357.344-.19-.198-.412.395-1.373-1.432.715-.685 1.267 1.32.055-.053-.168-.174A76.379 76.379 0 0 0 76.441 7H49.002zM18.533 18.002a.493.493 0 0 0-.387.144.497.497 0 0 1 .387-.144zm-.387.144a.493.493 0 0 0-.144.387.497.497 0 0 1 .144-.387zm.104 3.604A28.23 28.23 0 0 1 2 28.344v18.16a46.28 46.28 0 0 0 17.814-4.375L18.25 21.75zM54.855 39l.754.783-.613.582v.967H54v-1.984h.494l.361-.348zm1.44 1.498 1.373 1.432-.715.695-1.373-1.44.715-.687zM54 42.33h.996v1.984H54V42.33zm4.355.324 1.381 1.432-.716.687-1.381-1.433.716-.686zM54 45.304h.996v1.993H54v-1.992zm8.924 1.997-.053.05.59.614.053-.05-.59-.614zM54 48.287h.996v1.984H54v-1.984zm10.549.81 1.38 1.44-.716.688-1.381-1.432.717-.695zm2.066 2.157 1.373 1.432-.715.687-1.373-1.434.715-.685zM54 51.27h.996v1.984H54V51.27zm14.682 2.132 1.373 1.432-.715.687-1.381-1.433.723-.686zm2.06 2.149 1.381 1.44-.502.478v.724h-1.986v-.998h1.306l-.916-.95.717-.694zm-6.998 1.644h1.92v.998h-.363l.031.059-.902.42-.686-1.477zm2.908 0h1.994v.998h-1.994v-.998zm-.9 1.957.834 1.801-.9.422-.834-1.8.9-.423zm-5.803.834.696.71-1.418 1.394-.702-.715 1.424-1.389zM54 60.21h.996v1.992H54V60.21zm7.264.332.87 1.78-.892.44-.87-1.784.892-.436zm5.742 1.313.842 1.802-.9.42-.843-1.8.9-.422zm-9.19.214.694.717-1.416 1.387-.696-.71 1.418-1.394zM54 63.19h.996v1.641l.688-.672.7.707-1.425 1.389-.693-.71.377-.368H54v-1.987zm8.57.024L63.45 65l-.895.436-.877-1.78.892-.443zm5.7 1.344.103.228.117.274.082.279.051.281.016.274-.016.273-.05.258-.083.244-.095.207-.9-.422.066-.146.044-.135.03-.139.008-.148-.008-.155-.03-.162-.052-.17-.088-.207-.096-.214.9-.42zm-4.385 1.336.51 1.04.066.133.066.088.08.082.088.067.045.029-.51.856-.103-.06-.191-.153-.17-.178-.147-.207-.111-.207-.518-1.055.895-.435zm3.1 1.12.619.784-.043.03-.207.14-.215.117-.221.111-.229.088-.236.082-.236.059-.237.045-.244.029-.244.008h-.072l.037-.996H65.664l.168-.024.17-.029.178-.05.17-.053.17-.067.162-.08.148-.09.147-.096.007-.007z" transform="matrix(.26459 0 0 .26459 0 0)"/><path style="color:#000;opacity:.45;fill:#fff;stroke-width:.999999;-inkscape-stroke:none" d="M20.225 1.852a20.209 20.209 0 0 1-3.933 10.292l.044.046-.094.091.078.081.094-.09.157.161-.095.092.078.082.094-.092.156.162-.094.092.052.055a20.995 20.995 0 0 0 4.259-10.972Zm-5.821 12.479-.115.113h.13v-.113zm-.117.114A20.23 20.23 0 0 1 .53 20.32v.794a21.012 21.012 0 0 0 13.758-5.577v-.077h.087l.045-.041v-.072h-.132v-.225h.132v-.114h-.132v-.225h.132v-.113h-.132z"/><path style="color:#000;opacity:.35;fill:#fff;stroke-width:.999999;-inkscape-stroke:none" d="M12.164 1.852a12.214 12.214 0 0 1-1.028 3.391l.84.065c.479-1.083.818-2.242.989-3.456zm-6.922 9.295A12.245 12.245 0 0 1 .53 12.304v.795a13.014 13.014 0 0 0 4.778-1.115z"/><path style="color:#000;opacity:.25;fill:#fff;stroke-width:.999999;-inkscape-stroke:none" d="M6.455 1.852A6.706 6.706 0 0 1 .53 6.706v.793a7.47 7.47 0 0 0 4.3-1.744l-.066-.851a.131.131 0 0 1 .14-.141l.848.065a7.483 7.483 0 0 0 1.524-2.976z"/><path style="color:#000;fill:#3584e4;stroke-width:.999999;-inkscape-stroke:none;opacity:.05" d="M3.54 1.852A3.98 3.98 0 0 1 .53 3.968v.796a4.79 4.79 0 0 0 3.883-2.912z"/></svg>