<svg width="160" height="94" viewBox="0 0 42.333 24.871" xmlns="http://www.w3.org/2000/svg"><path style="opacity:.8;fill:#fff;stroke-width:13.8049" d="M2 7v85h156V79.795c-20.075-.484-38.302-8.407-52.064-21.102h.408v-.89h1.986v.89h.629v-.498h.367v-.392h1.307l-.924-.96.725-.687 1.373 1.434-.495.478v.73h-.75c12.882 10.85 29.375 17.547 47.438 17.999v-27.29a49.185 49.185 0 0 1-18.059-4.212l-.234 3.059a.497.497 0 0 1-.844.314l-7.668-7.676-12.078 12.092-.351.352-.702-.704.352-.351 12.428-12.445a.497.497 0 0 1 .699 0l7.256 7.261 2.166-28.16-28.131 2.164 7.256 7.264a.497.497 0 0 1 .006.701l-5.073 5.211-.347.357-.71-.693.345-.355 4.73-4.864-7.672-7.681a.497.497 0 0 1 .313-.846l3.056-.234A49.103 49.103 0 0 1 110.998 7H83.528a76.332 76.332 0 0 0 10.779 32.83l.234-.223.752.782-.613.591v.96h-.996v.039h.496v.425h-.496v.526h.996v1.992h-.5v.04h-.11l-.029-.04h-.357v-.514A79.32 79.32 0 0 1 80.516 7H2zm112.023 0a46.164 46.164 0 0 0 3.887 12.816l20.354-1.568A28.283 28.283 0 0 1 132.504 7h-18.48zm21.579 0c2.837 10.025 11.673 17.51 22.398 18.344v-7.338c-6.634-.735-12.198-5.067-14.678-11.006h-7.72zm11.015 0A15.043 15.043 0 0 0 158 14.998V7h-11.383zm-5.15 11.002a.497.497 0 0 1 .387.144.493.493 0 0 0-.387-.144zm.502.326c.01.028.018.055.023.084a.497.497 0 0 0-.023-.084zm-.219 3.422-1.564 20.379A46.28 46.28 0 0 0 158 46.504v-18.16a28.23 28.23 0 0 1-16.25-6.594zM93.684 39.848v.105h.494l.111-.105h-.605zm2.296 1.257 1.38 1.432-.723.688-1.373-1.432.716-.688zm2.067 2.149 1.373 1.432-.717.693-1.373-1.44.717-.685zm2.058 2.154 1.381 1.434-.715.685-1.38-1.431.714-.688zm-6.421.502h.996v1.986h-.996V45.91zm8.49 1.647 1.373 1.433-.717.686-1.373-1.432.717-.687zm-8.49 1.336h.996v1.986h-.996v-1.986zm10.556.812 1.373 1.432-.717.695-1.373-1.44.717-.687zm2.059 2.156 1.38 1.432-.714.686-1.381-1.432.715-.686zm-12.615.014h.998v1.986h-.998v-1.986zm14.683 2.135 1.373 1.431-.717.686-1.373-1.432.717-.685zm-14.683.847h.998v1.987h-.998v-1.987zm9.744 2.946h1.92v.996h-.362l.03.06-.9.42-.688-1.476zm-9.744.029h.996v1.994h-.996v-1.994zm11.699.363h.17v.153c-.056-.052-.115-.1-.17-.153zm.053 1.565.841 1.8-.9.42-.842-1.8.9-.42zm-5.803.834.695.709-1.418 1.386-.693-.709 1.416-1.386zm-5.95.22h.997v1.987h-.996v-1.987zm7.264.327.88 1.785-.893.435-.88-1.779.893-.441zm5.752 1.32.834 1.8-.9.423-.836-1.801.902-.422zm-9.191.215.693.709-1.424 1.394-.693-.716 1.424-1.387zm-3.824 1.12h.998v1.64l.693-.678.693.715-1.423 1.388-.696-.709.377-.369h-.642v-1.986zm8.578.024.87 1.785-.892.436-.87-1.785.892-.436zm5.691 1.342.111.23.112.266.088.287.052.282.014.273-.021.266-.053.257-.08.25-.09.2-.9-.412.066-.149.045-.133.021-.14.016-.147-.008-.156-.03-.162-.052-.176-.088-.2-.103-.214.9-.422zm-4.385 1.338.51 1.041.067.125.066.096.08.08.09.066.05.031-.507.856-.104-.066-.193-.149-.176-.176-.148-.207-.112-.207-.515-1.054.892-.436zm3.108 1.121.613.775-.037.038-.207.132-.213.125-.223.112-.236.088-.228.082-.237.058-.244.045-.242.03-.236.007-.082-.008.037-.988h.037l.17-.008.17-.015.177-.037.17-.045.168-.051.17-.074.164-.075.154-.087.141-.096.014-.008z" transform="matrix(.26459 0 0 .26459 0 0)"/><path style="color:#000;opacity:.35;fill:#fff;stroke-width:.999999;-inkscape-stroke:none" d="M30.169 1.852a12.214 12.214 0 0 0 1.028 3.391l-.84.065a12.992 12.992 0 0 1-.989-3.456Zm6.922 9.295a12.245 12.245 0 0 0 4.713 1.157v.795a13.014 13.014 0 0 1-4.778-1.115z"/><path style="color:#000;opacity:.25;fill:#fff;stroke-width:.999999;-inkscape-stroke:none" d="M35.878 1.852a6.706 6.706 0 0 0 5.926 4.854v.793a7.47 7.47 0 0 1-4.3-1.744l.066-.851a.131.131 0 0 0-.14-.141l-.848.065a7.483 7.483 0 0 1-1.524-2.976Z"/><path style="color:#000;opacity:.05;fill:#3584e4;stroke-width:.999999;-inkscape-stroke:none" d="M38.792 1.852a3.98 3.98 0 0 0 3.012 2.116v.796a4.79 4.79 0 0 1-3.883-2.912Z"/><path style="color:#000;opacity:.45;fill:#fff;stroke-width:.999999;-inkscape-stroke:none" d="M21.303 1.852a20.987 20.987 0 0 0 3.484 9.898v-.192h.131v-.113h-.13v-.225h.13v-.113h-.13v-.226h.13v-.113h-.13v-.225h.167a20.197 20.197 0 0 1-2.855-8.69Zm3.506 9.931c.026.039.054.075.08.114h.03v-.114zm3.074 3.615.044.04v-.04zm.27 0v.131h-.124a21.01 21.01 0 0 0 13.775 5.584v-.794a20.213 20.213 0 0 1-12.637-4.832v.042h-.226v-.131h-.112v.131h-.226v-.131h-.112v.131h-.226v-.131z"/></svg>