<svg width="318" height="94" version="1.1" viewBox="0 0 84.138 24.871" xmlns="http://www.w3.org/2000/svg">
 <g fill="#f37e40">
  <path transform="matrix(.26459 0 0 .26459 0 -3.6827e-5)" d="m160 2v90h156v-90h-156zm-2.0996 4-155.9 0.0019531v12h12.9c2.7699 0 5 2.2282 5 4.998v48c0 2.7699-2.2301 5-5 5h-12.9v15.998h155.9v-85.998zm21.102 3.002h116c2.77 0 5 2.2302 5 5v63.998c0 2.77-2.2302 5-5 5h-116c-2.77 0-5-2.2302-5-5v-63.998c0-2.77 2.2302-5 5-5zm-144.1 9h90c2.7699 0 5 2.2282 5 4.998v48c0 2.7699-2.2301 5-5 5h-90c-2.7699 0-5-2.2301-5-5v-48c0-2.7699 2.2301-4.998 5-4.998zm110 0h13v58h-13c-2.7699 0-5-2.2301-5-5v-48c0-2.7699 2.2301-5 5-5z" fill="#fff" opacity=".8" style="paint-order:normal"/>
 </g>
</svg>
