<svg width="318" height="94" version="1.1" viewBox="0 0 84.138 24.871" xmlns="http://www.w3.org/2000/svg">
 <g transform="translate(0 .00027851)" fill="#f37e40">
  <path transform="matrix(.26459 0 0 .26459 0 -.00031534)" d="m157.9 6-155.9 0.0019531v12h12.9c2.7699 0 5 2.2282 5 4.998v48c0 2.7699-2.2301 5-5 5h-12.9v15.998h155.9v-85.998zm158 0-155.9 0.0019531v11.998h-2v58h2v-57.998h12.9c2.7699 0 5 2.2282 5 4.998v48c0 2.7699-2.2301 5-5 5h-12.9v15.998h155.9v-85.998zm-281 12.002h90c2.7699 0 5 2.2282 5 4.998v48c0 2.7699-2.2301 5-5 5h-90c-2.7699 0-5-2.2301-5-5v-48c0-2.7699 2.2301-4.998 5-4.998zm110 0h13v58h-13c-2.7699 0-5-2.2301-5-5v-48c0-2.7699 2.2301-5 5-5zm48.002 0h90c2.7699 0 5 2.2282 5 4.998v48c0 2.7699-2.2301 5-5 5h-90c-2.7699 0-5-2.2301-5-5v-48c0-2.7699 2.2301-4.998 5-4.998zm110 0h13v58h-13c-2.7699 0-5-2.2301-5-5v-48c0-2.7699 2.2301-5 5-5z" fill="#fff" opacity=".8"/>
 </g>
</svg>
